<?xml version="1.0" encoding="utf-8"?>
<!-- Generator: Adobe Illustrator 19.1.1, SVG Export Plug-In . SVG Version: 6.00 Build 0)  -->
<svg version="1.1" id="Layer_1" xmlns="http://www.w3.org/2000/svg" xmlns:xlink="http://www.w3.org/1999/xlink" x="0px" y="0px"
	 viewBox="-290 381 31 31" style="enable-background:new -290 381 31 31;" xml:space="preserve">
<style type="text/css">
	.st0{fill:#FFFFFF;}
</style>
<path id="mark" class="st0" d="M-261,381.1l-9,4.7l0,0v14.9c0,0.6,0,1.3-0.2,1.9c-0.1,0.6-0.3,1.2-0.5,1.7c-0.1,0.1-0.1,0.3-0.2,0.4
	c-0.3,0-2.5-0.7-3.5-1.4c-0.4-0.3-0.8-0.6-1.2-1c-0.4-0.4-0.7-0.8-1-1.2c-0.3-0.4-0.6-0.9-0.8-1.4c-0.2-0.5-0.4-1-0.5-1.6
	c-0.1-0.5-0.1-1.1-0.1-1.6v-14.3l-2-1.2l-10,5.9v13.7c0,6.3,5.1,11.4,11.3,11.4c2.1,0,4-0.5,5.7-1.5l8.4-4.8
	c3.3-1.7,5.6-5.2,5.6-9.1v-14.3L-261,381.1L-261,381.1z M-272.1,407.2c-0.9,0.9-1.6,1.4-2.6,1.9c-0.6,0.2-1.3,0.5-1.9,0.7
	c-0.6,0.1-1.2,0.2-1.8,0.2s-1.6-0.1-2.2-0.2c-0.6-0.1-1.2-0.3-1.7-0.5c-0.5-0.2-1.1-0.5-1.6-0.9c-1.3-0.9-1.9-1.7-2.5-2.5
	c-0.3-0.5-0.6-1-0.9-1.6c-0.2-0.6-0.4-1.1-0.5-1.7c-0.2-0.7-0.2-1.4-0.2-2v-12.5l8-4.7v13.1l0,0c0,5,3.7,9.1,8.4,10.1
	C-271.8,406.8-271.9,407-272.1,407.2L-272.1,407.2z M-261.1,398.2c-0.1,0.5-0.3,1-0.5,1.5c-0.2,0.5-0.6,1.2-1,1.7
	c-0.6,0.7-1.2,1.2-2.7,2.1c-1.3,0.7-2.4,0.9-3.1,1.1c0.5-1.2,0.5-2.5,0.5-3.9L-268,387l7-3.7v13.3C-261,397.1-261,397.7-261.1,398.2
	L-261.1,398.2z"/>
</svg>
